<svg height="70.828" viewBox="0 0 70.828 70.828" width="70.828" xmlns="http://www.w3.org/2000/svg"><g fill="#119da4" transform="matrix(-1 0 0 -1 374.828 86.828)"><path d="m339.414 16a35.414 35.414 0 1 0 35.414 35.414 35.413 35.413 0 0 0 -35.414-35.414zm0 65.295a29.881 29.881 0 1 1 29.881-29.881 29.88 29.88 0 0 1 -29.881 29.881z"/><path d="m326.152 29.526-4.126-3.526a22.525 22.525 0 0 0 -9.026 17.63c0 5.755 3.229 8.931 6.912 8.931a6.162 6.162 0 0 0 6.018-6.352c0-3.406-2.337-5.987-5.46-5.987a9.8 9.8 0 0 0 -1.452.232c.449-3.754 3.566-8.454 7.134-10.928z" transform="translate(10.92 12.134)"/><path d="m328.528 40.221c-.449 0-1.235.232-1.454.232.443-3.758 3.568-8.457 7.134-10.927l-4.124-3.526a22.516 22.516 0 0 0 -9.024 17.63c0 5.755 3.227 8.931 6.91 8.931a6.161 6.161 0 0 0 6.012-6.352c0-3.409-2.331-5.988-5.454-5.988z" transform="translate(20.7 12.134)"/></g></svg>