<svg height="12.722" viewBox="0 0 20.156 12.722" width="20.156" xmlns="http://www.w3.org/2000/svg"><g fill="#252f48"><path d="m2252.3 464.5 1.836-1.874a6.92 6.92 0 0 0 -5.836-1.237 5.638 5.638 0 0 0 -4.74 4.9 6.974 6.974 0 0 0 1.473 5.678 6.017 6.017 0 0 0 5.005 1.975c2.822 0 6.126-2.329 5.933-7.585h-6.2v2.474h3.535a3.242 3.242 0 0 1 -3 2.493c-1.605.1-3.749-.425-4.174-3-.315-1.907.437-4.107 2.756-4.455a4.268 4.268 0 0 1 3.412.631z" transform="translate(-2243.467 -461.221)"/><path d="m2317.508 477.714h-2.275v-2.276h-1.652v2.276h-2.281v1.652h2.276v2.275h1.652v-2.275h2.275z" transform="translate(-2297.353 -472.514)"/></g></svg>