<svg height="25.427" viewBox="0 0 40.285 25.427" width="40.285" xmlns="http://www.w3.org/2000/svg"><g fill="#fff"><path d="m2272.325 1251.422 3.669-3.747a13.833 13.833 0 0 0 -11.665-2.472c-6.72 1.4-8.864 6.083-9.473 9.791-.582 3.546.087 8.259 2.945 11.349 2.079 2.247 4.616 3.947 10 3.947 5.639 0 12.244-4.654 11.858-15.16h-12.4v4.944h7.066a6.478 6.478 0 0 1 -5.987 4.983c-3.208.192-7.493-.85-8.343-5.987-.631-3.811.874-8.209 5.509-8.9s6.821 1.252 6.821 1.252z" transform="translate(-2254.664 -1244.863)"/><path d="m2334.9 1263.628h-4.548v-4.548h-3.3v4.548h-4.552v3.3h4.548v4.548h3.3v-4.548h4.548z" transform="translate(-2294.616 -1253.236)"/></g></svg>