<svg height="12.832" viewBox="0 0 12.832 12.832" width="12.832" xmlns="http://www.w3.org/2000/svg"><g fill="#252f48"><path d="m1748.242 199.934h-4.9a3.969 3.969 0 0 1 -3.964-3.964v-4.9a3.969 3.969 0 0 1 3.964-3.964h4.9a3.968 3.968 0 0 1 3.964 3.964v4.9a3.969 3.969 0 0 1 -3.964 3.964zm-4.9-11.4a2.537 2.537 0 0 0 -2.534 2.534v4.9a2.537 2.537 0 0 0 2.534 2.534h4.9a2.537 2.537 0 0 0 2.534-2.534v-4.9a2.536 2.536 0 0 0 -2.534-2.534z" transform="translate(-1739.374 -187.102)"/><path d="m1767.389 218.4a3.28 3.28 0 1 1 3.279-3.28 3.283 3.283 0 0 1 -3.279 3.28zm0-5.272a1.992 1.992 0 1 0 1.992 1.992 1.995 1.995 0 0 0 -1.992-1.996z" transform="translate(-1760.973 -208.701)"/><ellipse cx="9.861" cy="2.945" rx=".554" ry=".554"/></g></svg>