<svg height="33.664" viewBox="0 0 33.664 33.664" width="33.664" xmlns="http://www.w3.org/2000/svg"><g fill="#fff"><path d="m1773.836 1004.408h-12.865a10.411 10.411 0 0 1 -10.4-10.4v-12.865a10.411 10.411 0 0 1 10.4-10.4h12.865a10.411 10.411 0 0 1 10.4 10.4v12.865a10.411 10.411 0 0 1 -10.4 10.4zm-12.865-29.908a6.655 6.655 0 0 0 -6.647 6.647v12.865a6.655 6.655 0 0 0 6.647 6.647h12.865a6.655 6.655 0 0 0 6.647-6.647v-12.869a6.654 6.654 0 0 0 -6.647-6.647z" transform="translate(-1750.571 -970.744)"/><path d="m1783.911 1012.686a8.6 8.6 0 1 1 8.6-8.6 8.614 8.614 0 0 1 -8.6 8.6zm0-13.83a5.227 5.227 0 1 0 5.226 5.227 5.232 5.232 0 0 0 -5.226-5.228z" transform="translate(-1767.078 -987.25)"/><path d="m1826.875 991.057a1.455 1.455 0 1 1 -1.455-1.455 1.455 1.455 0 0 1 1.455 1.455z" transform="translate(-1799.55 -983.329)"/></g></svg>