<svg height="71.423" viewBox="0 0 89.644 71.423" width="89.644" xmlns="http://www.w3.org/2000/svg"><path d="m592.9 599.69h-6.62v-52.306a.888.888 0 0 0 -.478-.789l-31.456-16.389c-.145-.1-.3-.084-.518-.163h-.006a.865.865 0 0 0 -.473.139l-12.4 7.909a.88.88 0 0 0 -.415.749v12.608l-10.059-4.495a.862.862 0 0 0 -.777.032l-17.088 9.344a.89.89 0 0 0 -.466.781v42.58h-7.116a.888.888 0 0 0 0 1.776h22.694a.886.886 0 0 0 .887-.888v-28.921l11.926-4.607v33.528a.887.887 0 0 0 .888.888h12.415a.887.887 0 0 0 .888-.888v-28.9l5 1.869v27.029a.886.886 0 0 0 .887.888h32.287a.888.888 0 0 0 0-1.776zm-8.4-51.766v51.766h-9.99v-32.482a.892.892 0 0 0 -.53-.813l-19.26-8.606v-25.389zm-42.195-8.6 10.641-6.792v24.468l-10.641-4.755zm0 14.857 10.641 4.755v10.18l-10.641-3.98zm-14.9 16.033a.9.9 0 0 0 -.571.831v28.645h-12.918v-42.054l16.241-8.882 10.376 4.637v11.755zm25.545 29.473h-10.642v-32.653l10.641 3.982zm7.968-27.59-6.193-2.317v-10.047l18.015 8.051v31.906h-11.247v-26.758a.892.892 0 0 0 -.577-.832z" fill="#fff" transform="translate(-504.14 -530.043)"/></svg>