<svg height="105.28" viewBox="0 0 89.404 105.28" width="89.404" xmlns="http://www.w3.org/2000/svg"><path d="m59.2 479.887a1 1 0 0 1 -.994-.995v-2.652a1 1 0 0 1 1.991 0v2.653a1 1 0 0 1 -.997.994z" transform="translate(29.206 -384.756)"/><path d="m59.2 498.11a1 1 0 0 1 -.994-.994v-4.836a1 1 0 0 1 1.991 0v4.836a1 1 0 0 1 -.997.994zm0-12.089a1 1 0 0 1 -.994-.994v-4.836a1 1 0 1 1 1.991 0v4.836a1 1 0 0 1 -.997.994zm0-12.089a1 1 0 0 1 -.994-.994v-4.838a1 1 0 0 1 1.991 0v4.839a1 1 0 0 1 -.997.993zm0-12.091a1 1 0 0 1 -.994-.995v-4.836a1 1 0 0 1 1.991 0v4.836a1 1 0 0 1 -.997.995z" transform="translate(29.206 -412.885)"/><path d="m59.2 455.514a1 1 0 0 1 -.994-.995v-2.654a1 1 0 0 1 1.991 0v2.654a1 1 0 0 1 -.997.995z" transform="translate(29.206 -418.647)"/><path d="m91.868 528.389h-56.159a1 1 0 0 1 -.994-.995v-4.864a1 1 0 0 1 .994-1h50.742v-72.873a1 1 0 0 1 1-.995h4.42a1 1 0 0 1 1 .995v7.671a1 1 0 0 1 -1.991 0v-6.674h-2.437v72.876a1 1 0 0 1 -.994.995h-50.749v2.875h54.17v-9.151a1 1 0 0 1 1.991 0v10.148a1 1 0 0 1 -.993.992z" transform="translate(-3.461 -423.11)"/><path d="m53 506.526h-7.059a2.426 2.426 0 0 1 -2.422-2.422v-2.46a23.518 23.518 0 0 1 -6.067-2.515l-1.743 1.74a2.42 2.42 0 0 1 -3.423 0l-4.986-4.985a2.424 2.424 0 0 1 0-3.428l1.74-1.74a23.553 23.553 0 0 1 -2.515-6.067h-2.46a2.426 2.426 0 0 1 -2.422-2.422v-7.055a2.426 2.426 0 0 1 2.422-2.422h2.46a23.6 23.6 0 0 1 2.515-6.067l-1.74-1.74a2.424 2.424 0 0 1 0-3.428l4.987-4.987a2.43 2.43 0 0 1 3.426 0l1.743 1.743a23.348 23.348 0 0 1 6.067-2.515v-2.462a2.425 2.425 0 0 1 2.422-2.422h7.055a2.425 2.425 0 0 1 2.422 2.422v2.462a23.417 23.417 0 0 1 6.067 2.515l1.74-1.743a2.43 2.43 0 0 1 3.426 0l4.989 4.987a2.427 2.427 0 0 1 0 3.428l-1.738 1.74a23.465 23.465 0 0 1 2.512 6.067h2.46a2.427 2.427 0 0 1 2.424 2.422v7.055a2.427 2.427 0 0 1 -2.424 2.422h-2.464a23.554 23.554 0 0 1 -2.515 6.067l1.74 1.74a2.427 2.427 0 0 1 0 3.428l-4.984 4.987a2.425 2.425 0 0 1 -3.426 0l-1.743-1.74a23.518 23.518 0 0 1 -6.067 2.515v2.46a2.426 2.426 0 0 1 -2.419 2.42zm-15.7-9.65a.986.986 0 0 1 .533.155 21.49 21.49 0 0 0 6.894 2.857 1 1 0 0 1 .777.973v3.239a.436.436 0 0 0 .433.433h7.063a.436.436 0 0 0 .433-.433v-3.244a1 1 0 0 1 .777-.973 21.49 21.49 0 0 0 6.894-2.857 1 1 0 0 1 1.238.136l2.295 2.3a.434.434 0 0 0 .612 0l4.987-4.989a.433.433 0 0 0 0-.612l-2.295-2.295a1 1 0 0 1 -.136-1.236 21.568 21.568 0 0 0 2.857-6.9 1 1 0 0 1 .971-.777h3.244a.436.436 0 0 0 .435-.433v-7.055a.436.436 0 0 0 -.435-.433h-3.25a1 1 0 0 1 -.971-.777 21.534 21.534 0 0 0 -2.857-6.894 1 1 0 0 1 .136-1.238l2.295-2.295a.433.433 0 0 0 0-.612l-4.987-4.987a.436.436 0 0 0 -.614 0l-2.293 2.295a.991.991 0 0 1 -1.238.136 21.541 21.541 0 0 0 -6.892-2.857.993.993 0 0 1 -.779-.971v-3.246a.434.434 0 0 0 -.433-.433h-7.053a.434.434 0 0 0 -.433.433v3.246a.993.993 0 0 1 -.779.971 21.541 21.541 0 0 0 -6.892 2.857 1 1 0 0 1 -1.238-.136l-2.299-2.288a.432.432 0 0 0 -.612 0l-4.987 4.987a.432.432 0 0 0 -.127.306.438.438 0 0 0 .124.306l2.302 2.295a1 1 0 0 1 .136 1.238 21.593 21.593 0 0 0 -2.859 6.894.993.993 0 0 1 -.971.777h-3.243a.436.436 0 0 0 -.433.433v7.055a.436.436 0 0 0 .433.433h3.244a.993.993 0 0 1 .971.777 21.605 21.605 0 0 0 2.859 6.9 1 1 0 0 1 -.137 1.232l-2.295 2.295a.432.432 0 0 0 -.127.306.438.438 0 0 0 .124.306l4.989 4.989a.436.436 0 0 0 .612 0l2.295-2.3a1 1 0 0 1 .702-.289z" transform="translate(-21.641 -418.647)"/><path d="m32.75 457.035a1 1 0 0 1 -.148-1.979 18.547 18.547 0 0 1 2.8-.213.994.994 0 1 1 0 1.989 16.42 16.42 0 0 0 -2.5.191 1.1 1.1 0 0 1 -.152.012z" transform="translate(-7.573 -413.126)"/><path d="m26.719 474.329a1 1 0 0 1 -.987-.882 18.656 18.656 0 0 1 -.12-2.106 18.439 18.439 0 0 1 .332-3.485.983.983 0 0 1 1.164-.789 1 1 0 0 1 .789 1.164 16.463 16.463 0 0 0 -.189 4.989 1 1 0 0 1 -.875 1.1.928.928 0 0 1 -.114.009zm3.433-12.5a.994.994 0 0 1 -.789-1.6 18.427 18.427 0 0 1 4.03-3.882 1 1 0 1 1 1.145 1.628 16.522 16.522 0 0 0 -3.6 3.462.99.99 0 0 1 -.786.389z" transform="translate(-16.119 -411.288)"/><path d="m29.386 470.141a.99.99 0 0 1 -.743-.33 18.542 18.542 0 0 1 -1.7-2.228 1 1 0 1 1 1.669-1.085 16.344 16.344 0 0 0 1.518 1.986.993.993 0 0 1 -.741 1.657z" transform="translate(-14.495 -397.55)"/><path d="m41.387 491.512a18.367 18.367 0 0 1 -13.681-6.125 1 1 0 0 1 1.485-1.327 16.345 16.345 0 1 0 12.2-27.228.994.994 0 1 1 0-1.989 18.334 18.334 0 0 1 0 36.669z" transform="translate(-13.559 -413.126)"/><path d="m38.381 476.376a8.765 8.765 0 1 1 8.764-8.764 8.775 8.775 0 0 1 -8.764 8.764zm0-15.539a6.774 6.774 0 1 0 6.772 6.775 6.782 6.782 0 0 0 -6.772-6.775z" transform="translate(-10.553 -407.559)"/><path d="m57.632 476.838h-4.924a1.993 1.993 0 0 1 -1.991-1.991v-1.484a16.772 16.772 0 0 1 -3.885-1.611l-1.052 1.048a2 2 0 0 1 -2.816 0l-3.481-3.483a1.994 1.994 0 0 1 0-2.818l1.052-1.049a16.707 16.707 0 0 1 -1.611-3.887h-1.487a1.991 1.991 0 0 1 -1.989-1.991v-4.922a1.992 1.992 0 0 1 1.989-1.991h1.487a16.729 16.729 0 0 1 1.611-3.885l-1.052-1.052a1.991 1.991 0 0 1 0-2.816l3.481-3.481a2.041 2.041 0 0 1 2.818 0l1.049 1.052a16.729 16.729 0 0 1 3.885-1.611v-1.487a2 2 0 0 1 1.991-1.991h4.925a2 2 0 0 1 1.991 1.991v1.487a16.686 16.686 0 0 1 3.885 1.611l1.052-1.052a2.038 2.038 0 0 1 2.816 0l3.481 3.481a1.991 1.991 0 0 1 0 2.816l-1.057 1.056a16.729 16.729 0 0 1 1.611 3.885h1.489a2 2 0 0 1 1.994 1.991v4.922a1.994 1.994 0 0 1 -1.994 1.991h-1.484a16.707 16.707 0 0 1 -1.611 3.887l1.052 1.052a1.991 1.991 0 0 1 0 2.816l-3.481 3.478a2 2 0 0 1 -2.816 0l-1.052-1.054a16.772 16.772 0 0 1 -3.885 1.611v1.484a1.993 1.993 0 0 1 -1.991 1.997zm-10.953-7.338a.98.98 0 0 1 .533.155 14.671 14.671 0 0 0 4.717 1.953 1 1 0 0 1 .779.973v2.264h4.925v-2.266a1 1 0 0 1 .779-.973 14.672 14.672 0 0 0 4.717-1.953.991.991 0 0 1 1.236.136l1.6 1.6 3.483-3.481-1.6-1.6a1 1 0 0 1 -.136-1.238 14.675 14.675 0 0 0 1.955-4.714.992.992 0 0 1 .971-.779h2.262v-4.924h-2.266a.993.993 0 0 1 -.971-.777 14.689 14.689 0 0 0 -1.955-4.717 1 1 0 0 1 .136-1.236l1.6-1.6-3.478-3.481-1.606 1.6a.985.985 0 0 1 -1.236.136 14.767 14.767 0 0 0 -4.717-1.953 1 1 0 0 1 -.779-.971v-2.266h-4.92v2.266a1 1 0 0 1 -.779.971 14.79 14.79 0 0 0 -4.717 1.953.988.988 0 0 1 -1.236-.136l-1.6-1.6-3.483 3.478 1.6 1.606a.994.994 0 0 1 .136 1.236 14.689 14.689 0 0 0 -1.955 4.717.993.993 0 0 1 -.971.777h-2.266v4.925h2.266a.992.992 0 0 1 .971.779 14.675 14.675 0 0 0 1.955 4.714 1 1 0 0 1 -.136 1.238l-1.6 1.6 3.481 3.483 1.6-1.6a1 1 0 0 1 .705-.295z" transform="translate(-2.442 -437.392)"/><path d="m51.317 466.36a13.1 13.1 0 1 1 13.1-13.1 13.113 13.113 0 0 1 -13.1 13.1zm0-24.207a11.108 11.108 0 1 0 11.106 11.109 11.121 11.121 0 0 0 -11.106-11.109z" transform="translate(1.411 -433.537)"/><path d="m47.43 455.791a6.416 6.416 0 1 1 6.419-6.416 6.423 6.423 0 0 1 -6.419 6.416zm0-10.844a4.427 4.427 0 1 0 4.427 4.427 4.433 4.433 0 0 0 -4.427-4.426z" transform="translate(5.298 -429.651)"/><path d="m90.021 526.354h-56.159a1 1 0 0 1 -1-.995v-12.535a1 1 0 0 1 1-.994h3.526a.436.436 0 0 0 .433-.433v-3.244a1 1 0 0 1 .777-.973 21.49 21.49 0 0 0 6.894-2.857 1 1 0 0 1 1.238.136l2.295 2.3a.434.434 0 0 0 .612 0l4.987-4.989a.433.433 0 0 0 0-.612l-2.295-2.295a1 1 0 0 1 -.136-1.236 21.568 21.568 0 0 0 2.857-6.9 1 1 0 0 1 .971-.777h3.244a.436.436 0 0 0 .435-.433v-7.055a.436.436 0 0 0 -.435-.433h-3.245a1 1 0 0 1 -.971-.777 21.534 21.534 0 0 0 -2.857-6.894 1 1 0 0 1 .136-1.238l2.295-2.295a.433.433 0 0 0 0-.612l-4.987-4.987a.436.436 0 0 0 -.614 0l-2.293 2.295a1 1 0 0 1 -1.238.136 21.541 21.541 0 0 0 -6.891-2.857.993.993 0 0 1 -.779-.971v-3.246a.434.434 0 0 0 -.433-.433h-3.526a1 1 0 0 1 -1-.995v-12.533a1 1 0 0 1 1-.995h6.172a1 1 0 0 1 .994.995v1.5h2.266a.992.992 0 0 1 .971.779 14.675 14.675 0 0 0 1.955 4.714 1 1 0 0 1 -.136 1.238l-1.6 1.6 3.481 3.483 1.6-1.6a1 1 0 0 1 1.235-.136 14.671 14.671 0 0 0 4.717 1.953 1 1 0 0 1 .779.973v2.264h4.925v-2.266a1 1 0 0 1 .779-.973 14.672 14.672 0 0 0 4.72-1.951.991.991 0 0 1 1.236.136l1.6 1.6 3.483-3.481-1.6-1.6a1 1 0 0 1 -.136-1.238 14.675 14.675 0 0 0 1.955-4.714.992.992 0 0 1 .971-.779h2.264v-1.5a1 1 0 0 1 .994-.995h12.534a1 1 0 0 1 .994.995v78.736a1 1 0 0 1 -.994.994zm-55.164-1.991h54.167v-76.746h-10.538v.507a1.994 1.994 0 0 1 -1.994 1.991h-1.484a16.707 16.707 0 0 1 -1.608 3.885l1.052 1.052a1.991 1.991 0 0 1 0 2.816l-3.481 3.481a2 2 0 0 1 -2.816 0l-1.055-1.049a16.772 16.772 0 0 1 -3.885 1.611v1.484a1.993 1.993 0 0 1 -1.991 1.991h-4.924a1.993 1.993 0 0 1 -1.991-1.991v-1.485a16.772 16.772 0 0 1 -3.885-1.611l-1.052 1.052a2 2 0 0 1 -2.816 0l-3.481-3.483a1.994 1.994 0 0 1 0-2.818l1.052-1.05a16.707 16.707 0 0 1 -1.611-3.887h-1.487a1.991 1.991 0 0 1 -1.989-1.991v-.507h-4.184v10.547h2.532a2.425 2.425 0 0 1 2.422 2.422v2.462a23.417 23.417 0 0 1 6.067 2.515l1.74-1.743a2.43 2.43 0 0 1 3.426 0l4.989 4.987a2.427 2.427 0 0 1 0 3.428l-1.738 1.74a23.465 23.465 0 0 1 2.512 6.067h2.46a2.427 2.427 0 0 1 2.424 2.422v7.055a2.427 2.427 0 0 1 -2.424 2.422h-2.46a23.554 23.554 0 0 1 -2.515 6.067l1.74 1.74a2.427 2.427 0 0 1 0 3.428l-4.984 4.987a2.425 2.425 0 0 1 -3.426 0l-1.743-1.74a23.518 23.518 0 0 1 -6.067 2.515v2.46a2.426 2.426 0 0 1 -2.422 2.422h-2.533z" transform="translate(-6.034 -425.939)"/><path d="m66 456.832h-20.071a.994.994 0 1 1 0-1.989h20.071a.994.994 0 1 1 0 1.989z" transform="translate(10.75 -413.126)"/><path d="m66 459.686h-20.071a1 1 0 0 1 0-1.991h20.071a1 1 0 0 1 0 1.991z" transform="translate(10.75 -409.16)"/><path d="m54.757 485.87a8.954 8.954 0 1 1 8.955-8.955 8.965 8.965 0 0 1 -8.955 8.955zm0-15.919a6.965 6.965 0 1 0 6.966 6.964 6.971 6.971 0 0 0 -6.966-6.964z" transform="translate(11.956 -394.883)"/><path d="m52.3 479.182a4.726 4.726 0 1 1 0-9.452 1 1 0 0 1 0 1.991 2.736 2.736 0 1 0 2.737 2.735.994.994 0 1 1 1.989 0 4.73 4.73 0 0 1 -4.726 4.726z" transform="translate(14.416 -392.424)"/><path d="m50.05 476.61h-7.959a.994.994 0 1 1 0-1.989h7.959a.994.994 0 1 1 0 1.989z" transform="translate(5.413 -385.623)"/></svg>