<svg height="97.089" viewBox="0 0 108.003 97.089" width="108.003" xmlns="http://www.w3.org/2000/svg"><path d="m167.255 97.073h-13.348a1 1 0 0 1 -1-1v-69.673a1 1 0 0 1 1-1h13.348a1 1 0 0 1 1 1v69.675a1 1 0 0 1 -1 .998zm-12.355-1.995h11.353v-67.678h-11.353z" transform="translate(-115.792 -13.682)"/><path d="m172.3 34.231h-19.719a1 1 0 0 1 -1-1v-11.717a1 1 0 0 1 1-1h19.719a1 1 0 0 1 1 1v11.72a1 1 0 0 1 -1 .997zm-18.72-1.994h17.72v-9.726h-17.722z" transform="translate(-117.649 -20.514)"/><path d="m212.967 31.654h-52.167a1 1 0 0 1 -1-1v-8.464a1 1 0 0 1 1-1h42.83a1.009 1.009 0 0 1 .671.259l9.332 8.464a1 1 0 0 1 -.671 1.738zm-51.167-1.994h48.581l-7.134-6.47h-41.447z" transform="translate(-106.156 -19.565)"/><path d="m167.255 40.986h-13.348a1 1 0 0 1 -1-1v-9.375a1 1 0 0 1 1-1h13.348a1 1 0 0 1 1 1v9.378a1 1 0 0 1 -1 .997zm-12.35-2h11.353v-7.375h-11.358z" transform="translate(-115.792 -7.8)"/><path d="m167.255 49.355h-13.348a1 1 0 0 1 -1-1v-9.375a1 1 0 0 1 1-1h13.348a1 1 0 0 1 1 1v9.375a1 1 0 0 1 -1 1zm-12.35-2h11.353v-7.378h-11.358z" transform="translate(-115.792 3.889)"/><path d="m167.255 57.719h-13.348a1 1 0 0 1 -1-1v-9.375a1 1 0 0 1 1-1h13.348a1 1 0 0 1 1 1v9.378a1 1 0 0 1 -1 .997zm-12.35-2h11.353v-7.378h-11.358z" transform="translate(-115.792 15.579)"/><path d="m167.256 97.073a.986.986 0 0 1 -.6-.2l-13.35-10.093a1 1 0 0 1 .029-1.613l12.259-8.613-12.31-9.848a1 1 0 0 1 -.374-.81.988.988 0 0 1 .424-.784l12.26-8.612-12.31-9.848a1 1 0 0 1 .05-1.6l12.228-8.589-12.256-9.263a1 1 0 0 1 1.2-1.592l13.351 10.092a1 1 0 0 1 -.026 1.613l-12.262 8.611 12.312 9.85a1 1 0 0 1 -.05 1.594l-12.262 8.612 12.312 9.848a1 1 0 0 1 -.05 1.6l-12.231 8.585 12.257 9.268a1 1 0 0 1 -.6 1.793z" transform="translate(-115.793 -13.683)"/><path d="m193.977 31.655a.986.986 0 0 1 -.513-.141l-13.556-8.094-9.114 7.987a1 1 0 0 1 -1.326-.012l-9.335-8.464a1 1 0 1 1 1.34-1.479l8.675 7.868 8.989-7.877a1 1 0 0 1 1.17-.108l13.556 8.093 9.114-7.985a1 1 0 0 1 1.328.01l9.332 8.464a1 1 0 1 1 -1.337 1.483l-8.675-7.868-8.989 7.88a1 1 0 0 1 -.659.243z" transform="translate(-106.156 -19.566)"/><path d="m172.358 31.654h-33.932a1 1 0 0 1 -1-1v-8.464a1 1 0 0 1 1-1h33.932a1 1 0 0 1 1 1v8.467a1 1 0 0 1 -1 .997zm-32.935-1.994h31.935v-6.47h-31.935z" transform="translate(-137.426 -19.565)"/><path d="m138.423 31.655a1 1 0 0 1 -.81-1.58l6.072-8.464a.995.995 0 0 1 1.615-.011l5.624 7.575 8.407-7.717a1 1 0 0 1 1.477.141l5.468 7.367 5.274-7.355a1 1 0 1 1 1.623 1.163l-6.073 8.464a1 1 0 0 1 -1.611.014l-5.624-7.578-8.407 7.719a1.01 1.01 0 0 1 -.77.257.99.99 0 0 1 -.707-.4l-5.468-7.367-5.274 7.352a.993.993 0 0 1 -.816.42z" transform="translate(-137.426 -19.566)"/><path d="m175.98 62.78h-24.372a1 1 0 0 1 -1-1v-6.314a1 1 0 0 1 1-1h24.372a1 1 0 0 1 1 1v6.317a1 1 0 0 1 -1 .997zm-23.375-1.994h22.375v-4.323h-22.375z" transform="translate(-119.004 26.927)"/><path d="m184.568 66.479h-35.224a1 1 0 0 1 -1-1v-7.379a1 1 0 0 1 1-1h35.224a1 1 0 0 1 1 1v7.38a1 1 0 0 1 -1 .999zm-34.227-2h33.23v-5.379h-33.23z" transform="translate(-122.167 30.609)"/><path d="m142.941 47.036a1 1 0 0 1 -1-1v-20.314a1 1 0 1 1 1.994 0v20.316a1 1 0 0 1 -.994.998z" transform="translate(-131.113 -14.63)"/><path d="m151.628 53.625h-8.9a3.823 3.823 0 0 1 -3.819-3.821v-12.784a3.823 3.823 0 0 1 3.821-3.82h8.9a3.825 3.825 0 0 1 3.821 3.821v12.779a3.825 3.825 0 0 1 -3.823 3.825zm-8.9-18.43a1.825 1.825 0 0 0 -1.824 1.824v12.781a1.825 1.825 0 0 0 1.824 1.824h8.9a1.825 1.825 0 0 0 1.824-1.824v-12.78a1.825 1.825 0 0 0 -1.824-1.824z" transform="translate(-135.351 -2.791)"/><path d="m231.267 62.179h-83.561a1 1 0 0 1 0-2h83.561a1 1 0 1 1 0 2z" transform="translate(-124.456 34.91)"/><path d="m141.087 62.179h-2.661a1 1 0 1 1 0-2h2.661a1 1 0 0 1 0 2z" transform="translate(-137.426 34.91)"/><path d="m146.416 62.179h-4.233a1 1 0 0 1 0-2h4.233a1 1 0 0 1 0 2z" transform="translate(-132.174 34.91)"/><path d="m149.257 62.179h-2.657a1 1 0 0 1 0-2h2.661a1 1 0 0 1 0 2z" transform="translate(-126.007 34.91)"/><path d="m180.882 61.806a1 1 0 0 1 -1-1v-2.661a1 1 0 0 1 2 0v2.661a1 1 0 0 1 -1 1z" transform="translate(-78.107 30.67)"/><path d="m180.882 66.522a1 1 0 0 1 -1-1v-5.216a1 1 0 0 1 2 0v5.219a1 1 0 0 1 -1 .997zm0-13.043a1 1 0 0 1 -1-1v-5.216a1 1 0 0 1 2 0v5.219a1 1 0 0 1 -1 .997z" transform="translate(-78.107 15.466)"/><path d="m180.882 46.547a1 1 0 0 1 -1-1v-2.658a1 1 0 0 1 2 0v2.661a1 1 0 0 1 -1 .997z" transform="translate(-78.107 9.355)"/><path d="m202.119 91.087h-36.44a1 1 0 0 1 -1-1v-49.6a1 1 0 0 1 1-1h36.44a1 1 0 0 1 1 1v5.751a1 1 0 1 1 -2 0v-4.749h-34.443v47.6h34.443v-3.614a1 1 0 0 1 2 0v4.612a1 1 0 0 1 -1 1z" transform="translate(-99.344 6.002)"/><path d="m186.315 69.833h-16.471a1 1 0 0 1 -1-1v-13.133a1 1 0 0 1 1-1h16.471a1 1 0 0 1 1 1v13.133a1 1 0 0 1 -1 1zm-15.471-2h14.472v-11.133h-14.472z" transform="translate(-93.525 27.256)"/><path d="m183.672 32.166h-13.024a1 1 0 0 1 -1-1v-5.444a1 1 0 0 1 1-1h13.024a1 1 0 0 1 1 1v5.446a1 1 0 0 1 -1 .998zm-12.027-1.994h11.029v-3.453h-11.029z" transform="translate(-92.402 -14.63)"/><path d="m208.58 40.683h-44.5a1 1 0 0 1 -1-1v-5.158a1 1 0 0 1 1-1h44.5a1 1 0 0 1 1 1v5.161a1 1 0 0 1 -1 .997zm-43.5-2h42.5v-3.161h-42.5z" transform="translate(-101.574 -2.335)"/><path d="m175.255 34.337a4.245 4.245 0 0 1 -4.241-4.238v-2.099a1 1 0 0 1 1-1h6.486a1 1 0 0 1 1 1v2.1a4.245 4.245 0 0 1 -4.245 4.237zm-2.244-5.343v1.106a2.244 2.244 0 1 0 4.488 0v-1.106z" transform="translate(-90.497 -11.456)"/><path d="m173.364 41.527a1 1 0 0 1 -1-1v-10.303a1 1 0 1 1 1.994 0v10.306a1 1 0 0 1 -.994.997z" transform="translate(-88.607 -8.34)"/><path d="m173.279 69.833a1 1 0 0 1 -1-1v-13.133a1 1 0 0 1 2 0v13.133a1 1 0 0 1 -1 1z" transform="translate(-88.726 27.256)"/><path d="m195.69 53.406h-28.263a1 1 0 0 1 -1-1v-9.517a1 1 0 0 1 1-1h28.263a1 1 0 0 1 1 1v9.517a1 1 0 0 1 -1 1zm-27.266-2h26.268v-7.52h-26.268z" transform="translate(-96.902 9.355)"/><path d="m195.69 58.868h-28.263a1 1 0 0 1 -1-1v-9.514a1 1 0 0 1 1-1h28.263a1 1 0 0 1 1 1v9.517a1 1 0 0 1 -1 .997zm-27.266-1.994h26.268v-7.523h-26.268z" transform="translate(-96.902 16.991)"/></svg>