<svg height="99.912" viewBox="0 0 67.189 99.912" width="67.189" xmlns="http://www.w3.org/2000/svg"><path d="m245.142 195.507h-3.318a.956.956 0 0 1 0-1.913h3.318a8.134 8.134 0 0 0 4.758-1.527l13.629-9.755a20.274 20.274 0 0 0 1.971-1.612q.4-.362.8-.719a20.094 20.094 0 0 0 2.117-2.076 8.584 8.584 0 0 0 1.92-4.354 1.559 1.559 0 0 0 -.756-1.573 3.419 3.419 0 0 0 -3.451.09l-15.63 9.691a2.2 2.2 0 0 1 -3.3-2.335c.053-.312.5-3.415-2.3-3.957l-11.566-1.83a26.983 26.983 0 0 0 -16.32 2.5l-4.264 2.117a.955.955 0 0 1 -1.38-.854v-1.444h-5.346a.956.956 0 0 1 0-1.913h6.3a.956.956 0 0 1 .955.955v.859l2.882-1.433a28.88 28.88 0 0 1 17.47-2.675l11.6 1.839c3.8.733 4.17 4.381 3.842 6.211a.289.289 0 0 0 .106.328.273.273 0 0 0 .317.009l15.622-9.686a5.332 5.332 0 0 1 5.383-.14 3.465 3.465 0 0 1 1.731 3.477 10.528 10.528 0 0 1 -2.356 5.353 21.7 21.7 0 0 1 -2.308 2.276c-.259.232-.519.462-.772.7a22.5 22.5 0 0 1 -2.152 1.757l-13.631 9.755a10.026 10.026 0 0 1 -5.871 1.879z" transform="translate(-205.067 -98.401)"/><path d="m217.944 181.989h-2.544a.956.956 0 0 1 0-1.913h2.549a.956.956 0 0 1 0 1.913z" transform="translate(-192.917 -84.883)"/><path d="m223.052 181.989h-2.552a.956.956 0 0 1 0-1.913h2.549a.956.956 0 1 1 0 1.913z" transform="translate(-186.295 -84.883)"/><path d="m212.323 184.795h-6.3a.956.956 0 0 1 0-1.913h5.346v-1.851a.956.956 0 0 1 .955-.955h15.222a.956.956 0 0 1 0 1.913h-14.267v1.851a.956.956 0 0 1 -.956.955z" transform="translate(-205.067 -84.883)"/><path d="m229.794 176.145h-8.655a.955.955 0 1 1 0-1.911h8.655a.955.955 0 0 1 0 1.911z" transform="translate(-185.471 -92.456)"/><path d="m208.766 191.672a.956.956 0 0 1 -.955-.958v-17.15a.955.955 0 1 1 1.911 0v17.151a.957.957 0 0 1 -.956.957z" transform="translate(-201.51 -94.566)"/><path d="m223.057 179.558h-11.911a.956.956 0 0 1 0-1.913h11.911a.956.956 0 0 1 0 1.913z" transform="translate(-198.425 -88.034)"/><path d="m240.358 221.23a.956.956 0 0 1 -.958-.955v-78.15l-23.877 27.34v43.315a.955.955 0 1 1 -1.911 0v-43.674a.958.958 0 0 1 .234-.629l25.79-29.528a.956.956 0 0 1 1.676.629v80.7a.956.956 0 0 1 -.954.952z" transform="translate(-193.989 -138.621)"/><path d="m240.359 173.409h-25.79a.956.956 0 0 1 -.721-1.584l25.79-29.528a.955.955 0 1 1 1.44 1.256l-24.406 27.947h23.686a.955.955 0 1 1 0 1.911z" transform="translate(-193.989 -134.281)"/><path d="m217.493 169.069a.955.955 0 0 1 -.721-1.584l19.075-21.84a.955.955 0 1 1 1.44 1.256l-19.075 21.842a.95.95 0 0 1 -.719.326z" transform="translate(-190.199 -129.941)"/><path d="m220.835 164.109a.955.955 0 0 1 -.721-1.584l11.4-13.052a.955.955 0 1 1 1.44 1.256l-11.4 13.055a.954.954 0 0 1 -.719.325z" transform="translate(-185.867 -124.98)"/><path d="m233.342 166.252h-16.82a.956.956 0 0 1 -.955-.955v-6.627a.955.955 0 0 1 .955-.955h16.82a.956.956 0 0 1 .955.955v6.63a.958.958 0 0 1 -.955.952zm-15.865-1.913h14.908v-4.714h-14.909z" transform="translate(-191.457 -113.871)"/><path d="m233.342 172.022h-16.82a.956.956 0 0 1 -.955-.955v-6.627a.956.956 0 0 1 .955-.955h16.82a.958.958 0 0 1 .955.955v6.627a.958.958 0 0 1 -.955.955zm-15.865-1.913h14.908v-4.709h-14.909z" transform="translate(-191.457 -106.391)"/><path d="m233.342 176.895a.961.961 0 0 1 -.645-.25 2.813 2.813 0 0 0 -1.408-.668l-11.566-1.83a27.071 27.071 0 0 0 -3.238-.3.955.955 0 0 1 -.919-.955v-2.682a.955.955 0 0 1 .955-.955h16.82a.956.956 0 0 1 .955.955v5.729a.958.958 0 0 1 -.572.875.982.982 0 0 1 -.382.081zm-13.321-4.639 11.6 1.839a5.479 5.479 0 0 1 .765.2v-3.13h-14.91v.82c.919.057 1.757.147 2.544.271z" transform="translate(-191.457 -98.91)"/><path d="m231.538 175.6a.955.955 0 0 1 -.955-.955v-6.17a.955.955 0 1 1 1.911 0v6.17a.955.955 0 0 1 -.956.955z" transform="translate(-171.99 -101.161)"/><path d="m231.538 160.382a.957.957 0 0 1 -.955-.958v-2.549a.955.955 0 0 1 1.911 0v2.549a.957.957 0 0 1 -.956.958z" transform="translate(-171.99 -116.197)"/><path d="m231.538 167.845a.956.956 0 0 1 -.955-.955v-5.39a.955.955 0 1 1 1.911 0v5.385a.956.956 0 0 1 -.956.96z" transform="translate(-171.99 -110.199)"/><path d="m231.538 170.869a.956.956 0 0 1 -.955-.955v-2.549a.955.955 0 1 1 1.911 0v2.549a.956.956 0 0 1 -.956.955z" transform="translate(-171.99 -102.598)"/><path d="m238.979 166.771a.956.956 0 0 1 -.955-.958v-2.652a12.238 12.238 0 0 0 -12.224-12.225.955.955 0 1 1 0-1.911 14.15 14.15 0 0 1 14.134 14.136v2.652a.957.957 0 0 1 -.955.958z" transform="translate(-179.431 -125.135)"/><path d="m227.293 188.294a.956.956 0 0 1 -.955-.955v-29.646a.956.956 0 0 1 1.913 0v29.645a.956.956 0 0 1 -.958.956z" transform="translate(-177.493 -115.136)"/><path d="m229.386 180.038a.955.955 0 0 1 -.955-.955v-24.44a.955.955 0 1 1 1.911 0v24.44a.955.955 0 0 1 -.956.955z" transform="translate(-174.78 -119.09)"/></svg>