<svg height="98.887" viewBox="0 0 100.33 98.887" width="100.33" xmlns="http://www.w3.org/2000/svg"><path d="m286.421 25.1a1.025 1.025 0 0 1 -.466-.112c-.784-.405-1.582-.784-2.388-1.135a1.016 1.016 0 0 1 .811-1.863q1.271.553 2.508 1.189a1.017 1.017 0 0 1 -.464 1.922z" transform="translate(-224.313 -18.607)"/><path d="m268.438 28.18a1.017 1.017 0 0 1 -.518-1.892 42.8 42.8 0 0 1 4.8-2.435 1.016 1.016 0 0 1 .8 1.868 40.529 40.529 0 0 0 -4.571 2.317 1 1 0 0 1 -.511.142zm30.446-4.747a1.02 1.02 0 0 1 -.225-.024 41.537 41.537 0 0 0 -5.059-.809 1.016 1.016 0 1 1 .193-2.022 42.793 42.793 0 0 1 5.316.85 1.016 1.016 0 0 1 -.222 2.007zm-18.263-.039a1.017 1.017 0 0 1 -.217-2.01 43.387 43.387 0 0 1 5.319-.828 1.017 1.017 0 0 1 .188 2.024 41.6 41.6 0 0 0 -5.069.789 1.122 1.122 0 0 1 -.221.025z" transform="translate(-246.715 -20.552)"/><path d="m265.011 28.629a1.017 1.017 0 0 1 -.718-1.736c.657-.659 1.333-1.292 2.022-1.9a1.016 1.016 0 1 1 1.343 1.526q-.985.868-1.929 1.812a1.015 1.015 0 0 1 -.718.298z" transform="translate(-251.654 -14.515)"/><path d="m278.726 105.463a1.015 1.015 0 0 1 -.718-.3l-11.208-11.204a1.017 1.017 0 0 1 0-1.436l3.233-3.231a42.647 42.647 0 0 1 1.548-58.992 1.016 1.016 0 1 1 1.436 1.438 40.632 40.632 0 0 0 -.835 56.887 1.016 1.016 0 0 1 -.02 1.416l-3.2 3.2 9.768 9.768 65.563-65.563-9.768-9.768-3.2 3.2a1.016 1.016 0 0 1 -1.416.022 40.762 40.762 0 0 0 -9.321-6.6 1.017 1.017 0 0 1 .93-1.809 42.834 42.834 0 0 1 9.06 6.264l3.231-3.231a1.016 1.016 0 0 1 1.438 0l11.2 11.206a1.013 1.013 0 0 1 0 1.436l-67 67a1.021 1.021 0 0 1 -.721.297z" transform="translate(-258.941 -17.921)"/><path d="m274.079 63.268a1.03 1.03 0 0 1 -.764-.347 19.913 19.913 0 0 1 28.1-28.1 1.016 1.016 0 0 1 .049 1.48l-26.664 26.669a1.007 1.007 0 0 1 -.721.298zm14.2-31.354a17.863 17.863 0 0 0 -14.129 28.829l25.09-25.089a17.853 17.853 0 0 0 -10.962-3.741z" transform="translate(-245.332 -7.097)"/><path d="m272.26 58.589a1.016 1.016 0 0 1 -.718-.3l-4.742-4.743a1.016 1.016 0 0 1 1.436-1.438l4.745 4.745a1.017 1.017 0 0 1 -.718 1.736z" transform="translate(-248.043 24.521)"/><path d="m274.907 55.945a1.021 1.021 0 0 1 -.72-.3l-4.745-4.745a1.015 1.015 0 0 1 1.436-1.436l4.747 4.745a1.017 1.017 0 0 1 -.718 1.736z" transform="translate(-244.229 20.706)"/><path d="m277.551 53.3a1 1 0 0 1 -.718-.3l-4.747-4.745a1.017 1.017 0 0 1 1.438-1.438l4.745 4.747a1.013 1.013 0 0 1 0 1.436 1 1 0 0 1 -.718.3z" transform="translate(-240.414 16.892)"/><path d="m280.2 50.653a1.015 1.015 0 0 1 -.718-.3l-4.745-4.745a1.016 1.016 0 0 1 1.436-1.438l4.745 4.745a1.017 1.017 0 0 1 -.718 1.736z" transform="translate(-236.6 13.078)"/><path d="m282.843 48.009a1.021 1.021 0 0 1 -.72-.3l-4.745-4.747a1.016 1.016 0 0 1 1.438-1.436l4.745 4.745a1.017 1.017 0 0 1 -.718 1.736z" transform="translate(-232.786 9.263)"/><path d="m285.487 45.362a1.019 1.019 0 0 1 -.72-.3l-4.745-4.747a1.016 1.016 0 0 1 1.438-1.436l4.745 4.745a1.015 1.015 0 0 1 -.718 1.734z" transform="translate(-228.971 5.449)"/><path d="m288.132 42.717a1.016 1.016 0 0 1 -.718-.3l-4.745-4.745a1.016 1.016 0 0 1 1.436-1.438l4.745 4.747a1.016 1.016 0 0 1 -.718 1.734z" transform="translate(-225.157 1.635)"/><path d="m290.777 40.073a1.016 1.016 0 0 1 -.718-.3l-4.745-4.745a1.016 1.016 0 0 1 1.436-1.438l4.747 4.745a1.017 1.017 0 0 1 -.72 1.736z" transform="translate(-221.343 -2.18)"/><path d="m293.423 37.426a1 1 0 0 1 -.718-.3l-4.747-4.745a1.016 1.016 0 0 1 1.438-1.436l4.745 4.745a1.016 1.016 0 0 1 -.718 1.734z" transform="translate(-217.528 -5.994)"/><path d="m296.068 34.781a1.015 1.015 0 0 1 -.718-.3l-4.745-4.745a1.016 1.016 0 0 1 1.436-1.438l4.745 4.747a1.016 1.016 0 0 1 -.718 1.734z" transform="translate(-213.714 -9.808)"/><path d="m283.956 56.068a1.016 1.016 0 0 1 -.718-1.734l1.917-1.917a1.016 1.016 0 0 1 1.436 1.438l-1.917 1.914a1 1 0 0 1 -.718.299z" transform="translate(-224.336 24.964)"/><path d="m287.01 54.064a1.016 1.016 0 0 1 -.718-1.734l3.692-3.695a1.016 1.016 0 0 1 1.438 1.436l-3.695 3.695a1.016 1.016 0 0 1 -.717.298z" transform="translate(-219.933 19.511)"/><path d="m290.792 49.232a1.016 1.016 0 0 1 -.718-1.734l1.914-1.917a1.016 1.016 0 0 1 1.438 1.436l-1.917 1.917a1 1 0 0 1 -.717.298z" transform="translate(-214.479 15.107)"/><path d="m273.46 95.814a1.017 1.017 0 0 1 -.989-1.25 51.069 51.069 0 0 1 13.619-24.464l34.844-34.846a1.02 1.02 0 0 1 1.438 0l10.628 10.633a1.012 1.012 0 0 1 0 1.436l-14.582 14.585a1.015 1.015 0 0 1 -1.436-1.436l13.868-13.872-9.2-9.2-34.122 34.134a49.007 49.007 0 0 0 -12.664 21.86 49.057 49.057 0 0 0 21.86-12.664l1.648-1.648a1.015 1.015 0 0 1 1.436 1.436l-1.648 1.648a51.08 51.08 0 0 1 -24.468 13.621 1.056 1.056 0 0 1 -.232.027z" transform="translate(-239.471 .216)"/><path d="m272.291 63.935a1.016 1.016 0 0 1 -.72-1.734l2.86-2.859a1.017 1.017 0 0 1 1.438 1.438l-2.859 2.857a1.016 1.016 0 0 1 -.719.298z" transform="translate(-241.158 34.952)"/><path d="m299.92 49a1.021 1.021 0 0 1 -.72-.3l-5.716-5.719a1.017 1.017 0 0 1 0-1.436l7.775-7.775a5.059 5.059 0 1 1 7.155 7.155l-7.776 7.775a1.016 1.016 0 0 1 -.718.3zm-4.281-6.735 4.281 4.281 7.055-7.057a3.024 3.024 0 0 0 0-4.278 3.1 3.1 0 0 0 -4.281 0z" transform="translate(-209.561 -3.622)"/><path d="m289.122 75.592a1.017 1.017 0 0 1 -.718-1.736l13.633-13.633a7.117 7.117 0 0 0 0-10.053l-10.632-10.636a1.015 1.015 0 0 1 1.436-1.436l10.635 10.632a9.144 9.144 0 0 1 0 12.928l-13.636 13.636a1.012 1.012 0 0 1 -.718.298z" transform="translate(-216.888 4.317)"/></svg>