<svg height="89.869" viewBox="0 0 117.115 89.869" width="117.115" xmlns="http://www.w3.org/2000/svg"><g transform="translate(-377.45 -24.141)"><path d="m409.912 86.012a1.089 1.089 0 0 1 -.246-.027 1.118 1.118 0 0 1 -.705-.5l-27.975-44.285a1.126 1.126 0 0 1 .351-1.552l14.789-9.348a1.131 1.131 0 0 1 1.552.351l27.978 44.291a1.128 1.128 0 0 1 -.356 1.558l-14.789 9.342a1.139 1.139 0 0 1 -.599.17zm-26.423-45.064 26.775 42.388 12.886-8.142-26.772-42.385z" transform="translate(5.727 10.203)"/><path d="m386.025 50.589a2.16 2.16 0 0 1 -1.827-1.006l-6.409-10.148a2.16 2.16 0 0 1 .673-2.976l16.951-10.707a2.158 2.158 0 0 1 2.974.67l6.412 10.15a2.155 2.155 0 0 1 -.67 2.973l-16.954 10.71a2.151 2.151 0 0 1 -1.15.334zm-6.285-12.278 6.36 10.072 16.824-10.737-6.439-10.021z" transform="translate(.01 2.179)"/><path d="m387.958 45.569a1.712 1.712 0 0 1 -.938-.3 2.938 2.938 0 0 1 -.833-.881l-6.409-10.15a2.449 2.449 0 0 1 -.419-1.789 1.389 1.389 0 0 1 .608-.881l7.59-4.8c.787-.495 1.816-.1 2.495.979l6.409 10.148c.678 1.073.6 2.171-.189 2.671l-7.59 4.8a1.359 1.359 0 0 1 -.724.203zm-6.228-12.456 6.309 9.991 6.471-4.087-6.31-9.991z" transform="translate(3.183 4.117)"/><path d="m379.966 40.149a1.125 1.125 0 0 1 -.952-.524 10.092 10.092 0 0 1 17.065-10.777 1.126 1.126 0 0 1 -.351 1.552l-15.162 9.577a1.134 1.134 0 0 1 -.6.172zm7.566-13.759a7.85 7.85 0 0 0 -7.15 11.04l13.126-8.291a7.9 7.9 0 0 0 -5.977-2.749z"/><path d="m408.319 67.112a1.123 1.123 0 0 1 -.551-.146l-16.03-9a1.124 1.124 0 0 1 -.051-1.933l14.789-9.342a1.127 1.127 0 0 1 1.725.876l1.241 18.343a1.121 1.121 0 0 1 -.522 1.03 1.137 1.137 0 0 1 -.601.172zm-13.835-10.186 12.572 7.061-.972-14.387z" transform="translate(23.353 38.108)"/><path d="m412.649 78.4a1.118 1.118 0 0 1 -.951-.524l-27.975-44.293a1.124 1.124 0 1 1 1.9-1.2l27.977 44.291a1.124 1.124 0 0 1 -.951 1.725z" transform="translate(10.386 13.146)"/><path d="m424.045 73.223a12.567 12.567 0 1 1 12.567-12.567 12.581 12.581 0 0 1 -12.567 12.567zm0-22.885a10.318 10.318 0 1 0 10.318 10.318 10.33 10.33 0 0 0 -10.318-10.318z" transform="translate(57.954 40.787)"/><path d="m416.836 63.45a1.125 1.125 0 1 1 0-2.249 4.321 4.321 0 1 0 0-8.642 1.126 1.126 0 0 1 0-2.252 6.571 6.571 0 1 1 0 13.143z" transform="translate(65.163 44.565)"/><path d="m435.487 97.834a1.124 1.124 0 0 1 -1.125-1.125 10.318 10.318 0 1 0 -20.636 0 1.124 1.124 0 1 1 -2.249 0v-57.219a12.567 12.567 0 1 1 25.134 0v57.22a1.124 1.124 0 0 1 -1.124 1.124zm-11.442-13.691a12.565 12.565 0 0 1 10.318 5.4v-50.053a10.318 10.318 0 1 0 -20.636 0v50.051a12.569 12.569 0 0 1 10.318-5.398z" transform="translate(57.954 4.734)"/><path d="m416.831 33.4h-6.711a1.125 1.125 0 1 1 0-2.249h6.712a1.125 1.125 0 0 1 0 2.249z" transform="translate(53.725 11.945)"/><path d="m396.188 33.4h-3a1.125 1.125 0 1 1 0-2.249h3a1.125 1.125 0 1 1 0 2.249z" transform="translate(24.887 11.945)"/><path d="m419.107 33.4h-6.117a1.125 1.125 0 1 1 0-2.249h6.117a1.125 1.125 0 0 1 0 2.249zm-15.294 0h-6.12a1.125 1.125 0 1 1 0-2.249h6.12a1.125 1.125 0 1 1 0 2.249z" transform="translate(32.56 11.945)"/><path d="m412.01 33.4h-3a1.125 1.125 0 1 1 0-2.249h3a1.125 1.125 0 1 1 0 2.249z" transform="translate(51.834 11.945)"/><path d="m403.879 84.271a1.133 1.133 0 0 1 -.954-.524l-16.319-25.835v4.3a1.124 1.124 0 1 1 -2.249 0v-8.189a1.125 1.125 0 0 1 2.076-.6l17.795 28.172 12.886-8.142-25.614-40.561a1.124 1.124 0 0 1 .919-1.725.793.793 0 0 1 .181-.014h13.718a1.125 1.125 0 0 1 0 2.249h-11.84l25.142 39.798a1.124 1.124 0 0 1 -.351 1.552l-14.79 9.348a1.134 1.134 0 0 1 -.6.171z" transform="translate(11.763 11.945)"/><path d="m385.482 57.176a1.126 1.126 0 0 1 -1.125-1.127v-3a1.124 1.124 0 1 1 2.249 0v3a1.126 1.126 0 0 1 -1.124 1.127z" transform="translate(11.763 47.319)"/><path d="m385.482 54.612a1.126 1.126 0 0 1 -1.125-1.127v-5.8a1.124 1.124 0 1 1 2.249 0v5.8a1.126 1.126 0 0 1 -1.124 1.127z" transform="translate(11.763 38.178)"/><path d="m385.482 47.477a1.124 1.124 0 0 1 -1.125-1.124v-3a1.124 1.124 0 1 1 2.249 0v3a1.124 1.124 0 0 1 -1.124 1.124z" transform="translate(11.763 30.805)"/><path d="m470.236 64.8h-77.636a8.247 8.247 0 0 1 -8.239-8.239v-2.4a1.124 1.124 0 1 1 2.249 0v2.4a6 6 0 0 0 5.99 5.99h77.639a1.125 1.125 0 0 1 0 2.249z" transform="translate(11.763 49.209)"/><path d="m394.857 56.615a1.125 1.125 0 0 1 -1.125-1.125v-19.748a1.124 1.124 0 0 1 1.125-1.125h37.52a1.125 1.125 0 0 1 1.124 1.125v9.242a1.126 1.126 0 0 1 -2.252 0v-8.118h-35.268v18.625a1.125 1.125 0 0 1 -1.124 1.124z" transform="translate(27.73 17.843)"/><path d="m419.079 41.515h-21.29a1.128 1.128 0 0 1 -1.127-1.127v-4.646a1.126 1.126 0 0 1 1.127-1.125h21.29a1.125 1.125 0 0 1 1.125 1.125v4.647a1.128 1.128 0 0 1 -1.125 1.126zm-20.165-2.252h19.038v-2.4h-19.038z" transform="translate(32.72 17.843)"/><path d="m443.467 74.935h-55.123a1.125 1.125 0 0 1 -1.124-1.124v-11.342a1.126 1.126 0 0 1 1.124-1.127h4.063a1.126 1.126 0 1 1 0 2.252h-2.938v9.091h52.871v-29.636a1.126 1.126 0 1 1 2.252 0v30.762a1.127 1.127 0 0 1 -1.125 1.124z" transform="translate(16.639 30.284)"/><path d="m415.738 71.219h-11.112a1.125 1.125 0 0 1 -1.125-1.125v-13.753a12.25 12.25 0 0 1 12.237-12.241 1.125 1.125 0 0 1 1.124 1.125v24.87a1.127 1.127 0 0 1 -1.124 1.124zm-9.988-2.252h8.861v-22.552a10 10 0 0 0 -8.861 9.926z" transform="translate(44.368 34)"/><path d="m400.382 53.746a1.125 1.125 0 0 1 -1.125-1.125v-9.572a1.128 1.128 0 0 1 1.125-1.127h11.472a1.126 1.126 0 0 1 0 2.252h-10.345v8.447a1.126 1.126 0 0 1 -1.127 1.125z" transform="translate(37.14 30.284)"/><path d="m400.382 47.9a1.127 1.127 0 0 1 -1.125-1.125v-5.915a1.126 1.126 0 0 1 2.252 0v5.914a1.128 1.128 0 0 1 -1.127 1.126z" transform="translate(37.14 26.559)"/></g></svg>