<svg height="83.083" viewBox="0 0 63.036 83.083" width="63.036" xmlns="http://www.w3.org/2000/svg"><path d="m318.895 165.57a6.364 6.364 0 0 1 -6.356-6.356 5.257 5.257 0 0 1 5.25-5.252 4.372 4.372 0 0 1 4.366 4.366.826.826 0 0 1 -1.651 0 2.718 2.718 0 0 0 -2.715-2.715 3.605 3.605 0 0 0 -3.6 3.6 4.713 4.713 0 0 0 4.707 4.707 6.1 6.1 0 0 0 6.091-6.091 7.827 7.827 0 0 0 -7.819-7.819 9.992 9.992 0 0 0 -9.982 9.98.826.826 0 0 1 -.825.827h-22.485a.827.827 0 0 1 -.825-.827 9.992 9.992 0 0 0 -9.982-9.98 7.827 7.827 0 0 0 -7.819 7.819 6.1 6.1 0 0 0 6.091 6.091 4.712 4.712 0 0 0 4.707-4.707 3.605 3.605 0 0 0 -3.6-3.6 2.72 2.72 0 0 0 -2.715 2.715.825.825 0 1 1 -1.649 0 4.372 4.372 0 0 1 4.364-4.366 5.257 5.257 0 0 1 5.25 5.252 6.363 6.363 0 0 1 -6.356 6.356 7.75 7.75 0 0 1 -7.742-7.74 9.481 9.481 0 0 1 9.47-9.47 11.647 11.647 0 0 1 11.6 10.806h20.891a11.648 11.648 0 0 1 11.6-10.806 9.481 9.481 0 0 1 9.47 9.47 7.75 7.75 0 0 1 -7.736 7.74z" transform="translate(-263.6 -130.635)"/><path d="m302.906 181.993h-30.754a.825.825 0 0 1 -.824-.825v-6.668a.825.825 0 0 1 .824-.825h30.753a.824.824 0 0 1 .825.825v6.672a.824.824 0 0 1 -.824.821zm-29.927-1.649h29.1v-5.022h-29.1z" transform="translate(-256.011 -105.777)"/><path d="m318.769 185.555h-51.969a.826.826 0 0 1 -.826-.825 7.7 7.7 0 0 1 7.694-7.692h38.232a7.7 7.7 0 0 1 7.692 7.692.824.824 0 0 1 -.823.825zm-51.087-1.649h50.2a6.051 6.051 0 0 0 -5.986-5.219h-38.226a6.054 6.054 0 0 0 -5.987 5.219z" transform="translate(-261.267 -102.472)"/><path d="m325.812 182.152h-61.385a.825.825 0 1 1 0-1.649h61.385a.825.825 0 0 1 0 1.649z" transform="translate(-263.6 -99.069)"/><path d="m299.695 151.749h-22.484a.819.819 0 0 1 -.616-.279l-6-6.769a.826.826 0 0 1 .618-1.374h34.479a.826.826 0 0 1 .618 1.374l-6 6.769a.823.823 0 0 1 -.615.279zm-22.112-1.649h21.741l4.537-5.12h-30.815z" transform="translate(-256.934 -135.577)"/><path d="m292.273 141.066h-2.2a.825.825 0 1 1 0-1.649h2.2a.825.825 0 1 1 0 1.649z" transform="translate(-238.413 -139.417)"/><path d="m299.811 141.066h-4.394a.825.825 0 1 1 0-1.649h4.394a.825.825 0 1 1 0 1.649zm-10.986 0h-4.4a.825.825 0 1 1 0-1.649h4.4a.825.825 0 0 1 0 1.649zm-10.988 0h-4.394a.825.825 0 0 1 0-1.649h4.394a.825.825 0 1 1 0 1.649z" transform="translate(-254.744 -139.417)"/><path d="m271.207 141.066h-2.2a.825.825 0 0 1 0-1.649h2.2a.825.825 0 1 1 0 1.649z" transform="translate(-259.1 -139.417)"/><path d="m317.224 148.818h-47.333a4.7 4.7 0 1 1 0-9.4h2.053a.825.825 0 1 1 0 1.649h-2.053a3.05 3.05 0 0 0 0 6.1h47.333a3.05 3.05 0 0 0 0-6.1h-1.324a.825.825 0 1 1 0-1.649h1.326a4.7 4.7 0 0 1 0 9.4z" transform="translate(-262.039 -139.417)"/><path d="m296.723 201.766h-22.485a.825.825 0 0 1 -.825-.825v-53.373a.826.826 0 0 1 .825-.825h22.484a.825.825 0 0 1 .825.825v53.374a.824.824 0 0 1 -.824.824zm-21.658-1.649h20.835v-51.723h-20.835z" transform="translate(-253.962 -132.223)"/><path d="m285.886 201.766h-7.992a.825.825 0 0 1 -.825-.825v-53.373a.826.826 0 0 1 .825-.825h7.992a.826.826 0 0 1 .824.825v53.374a.825.825 0 0 1 -.824.824zm-7.165-1.649h6.339v-51.723h-6.339z" transform="translate(-250.372 -132.223)"/></svg>