<svg height="25" viewBox="0 0 17.47 25" width="17.47" xmlns="http://www.w3.org/2000/svg"><path d="m90.365-1h.135.073a3.892 3.892 0 0 1 .671.1 3.464 3.464 0 0 1 3.056 3.446v17.992a3.464 3.464 0 0 1 -3.461 3.462h-10.539a3.464 3.464 0 0 1 -3.464-3.464v-17.99a3.464 3.464 0 0 1 3.214-3.455 3.894 3.894 0 0 1 .606-.083h.073 9.636zm1.935 19.477h-13.369v1.6a1.953 1.953 0 0 0 1.951 1.951h9.464a1.953 1.953 0 0 0 1.954-1.952zm-1.954-17.524h-9.518a1.954 1.954 0 0 0 -1.9 1.95v13.568h13.372v-13.571a1.954 1.954 0 0 0 -1.9-1.946h-.054zm-3.757 3.47h-1.951a.976.976 0 1 1 0-1.951h1.951a.976.976 0 1 1 0 1.951z" fill="#fff" fill-rule="evenodd" transform="translate(-76.833 .998)"/></svg>